<svg xmlns="http://www.w3.org/2000/svg" xmlns:xlink="http://www.w3.org/1999/xlink" width="350" zoomAndPan="magnify" viewBox="0 0 262.5 74.999997" height="100" preserveAspectRatio="xMidYMid meet" version="1.0"><defs><g/><clipPath id="e0a6f30e5c"><path d="M 9.152344 3.863281 L 69.785156 3.863281 L 69.785156 73.160156 L 9.152344 73.160156 Z M 9.152344 3.863281 " clip-rule="nonzero"/></clipPath></defs><g clip-path="url(#e0a6f30e5c)"><path fill="#f5c518" d="M 14.066406 50.464844 C 19.484375 58.710938 28.847656 64.171875 39.46875 64.171875 C 56.183594 64.171875 69.785156 50.652344 69.785156 34.03125 C 69.785156 17.414062 56.183594 3.890625 39.46875 3.890625 C 22.75 3.890625 9.152344 17.414062 9.152344 34.03125 L 9.152344 73.128906 L 14.066406 73.128906 Z M 46.84375 34.03125 C 46.84375 29.988281 50.148438 26.699219 54.214844 26.699219 C 58.28125 26.699219 61.589844 29.988281 61.589844 34.03125 C 61.589844 38.074219 58.28125 41.363281 54.214844 41.363281 C 50.148438 41.363281 46.84375 38.074219 46.84375 34.03125 Z M 46.84375 48.695312 C 46.84375 52.734375 43.535156 56.023438 39.46875 56.023438 C 35.402344 56.023438 32.09375 52.734375 32.09375 48.695312 C 32.09375 44.652344 35.402344 41.363281 39.46875 41.363281 C 43.535156 41.363281 46.84375 44.652344 46.84375 48.695312 Z M 39.46875 26.699219 C 35.402344 26.699219 32.09375 23.410156 32.09375 19.367188 C 32.09375 15.328125 35.402344 12.039062 39.46875 12.039062 C 43.535156 12.039062 46.84375 15.328125 46.84375 19.367188 C 46.84375 23.410156 43.535156 26.699219 39.46875 26.699219 Z M 32.09375 34.03125 C 32.09375 38.074219 28.785156 41.363281 24.71875 41.363281 C 20.652344 41.363281 17.34375 38.074219 17.34375 34.03125 C 17.34375 29.988281 20.652344 26.699219 24.71875 26.699219 C 28.785156 26.699219 32.09375 29.988281 32.09375 34.03125 Z M 32.09375 34.03125 " fill-opacity="1" fill-rule="nonzero"/></g><g fill="#ffffff" fill-opacity="1"><g transform="translate(81.419395, 30.989704)"><g><path d="M 12.984375 -17.796875 C 15.484375 -17.796875 17.515625 -16.957031 19.078125 -15.28125 C 20.640625 -13.613281 21.421875 -11.441406 21.421875 -8.765625 C 21.421875 -6.109375 20.65625 -3.957031 19.125 -2.3125 C 17.59375 -0.675781 15.566406 0.140625 13.046875 0.140625 C 10.210938 0.140625 8.132812 -0.925781 6.8125 -3.0625 L 6.8125 6.4375 L 2.984375 6.4375 L 2.984375 -17.671875 L 6.8125 -17.671875 L 6.8125 -14.609375 C 8.132812 -16.734375 10.191406 -17.796875 12.984375 -17.796875 Z M 8.3125 -4.734375 C 9.320312 -3.660156 10.613281 -3.125 12.1875 -3.125 C 13.757812 -3.125 15.046875 -3.660156 16.046875 -4.734375 C 17.054688 -5.804688 17.5625 -7.195312 17.5625 -8.90625 C 17.5625 -10.5625 17.054688 -11.925781 16.046875 -13 C 15.046875 -14.070312 13.757812 -14.609375 12.1875 -14.609375 C 10.613281 -14.609375 9.320312 -14.070312 8.3125 -13 C 7.3125 -11.925781 6.8125 -10.5625 6.8125 -8.90625 C 6.8125 -7.195312 7.3125 -5.804688 8.3125 -4.734375 Z M 8.3125 -4.734375 "/></g></g></g><g fill="#ffffff" fill-opacity="1"><g transform="translate(103.172203, 30.989704)"><g><path d="M 6.640625 -17.671875 L 6.640625 -14.140625 C 7.859375 -16.578125 9.894531 -17.796875 12.75 -17.796875 L 12.75 -14.140625 C 11 -14.234375 9.582031 -13.828125 8.5 -12.921875 C 7.414062 -12.015625 6.796875 -10.785156 6.640625 -9.234375 L 6.640625 0 L 2.828125 0 L 2.828125 -17.671875 Z M 6.640625 -17.671875 "/></g></g></g><g fill="#ffffff" fill-opacity="1"><g transform="translate(115.426837, 30.989704)"><g><path d="M 10.390625 -17.796875 C 13.117188 -17.796875 15.332031 -16.96875 17.03125 -15.3125 C 18.738281 -13.664062 19.59375 -11.503906 19.59375 -8.828125 C 19.59375 -6.171875 18.738281 -4.007812 17.03125 -2.34375 C 15.332031 -0.6875 13.117188 0.140625 10.390625 0.140625 C 7.648438 0.140625 5.425781 -0.6875 3.71875 -2.34375 C 2.007812 -4.007812 1.15625 -6.171875 1.15625 -8.828125 C 1.15625 -11.503906 2.007812 -13.664062 3.71875 -15.3125 C 5.425781 -16.96875 7.648438 -17.796875 10.390625 -17.796875 Z M 10.390625 -14.515625 C 8.796875 -14.515625 7.492188 -13.984375 6.484375 -12.921875 C 5.484375 -11.859375 4.984375 -10.484375 4.984375 -8.796875 C 4.984375 -7.097656 5.484375 -5.71875 6.484375 -4.65625 C 7.492188 -3.59375 8.796875 -3.0625 10.390625 -3.0625 C 11.984375 -3.0625 13.273438 -3.59375 14.265625 -4.65625 C 15.265625 -5.71875 15.765625 -7.097656 15.765625 -8.796875 C 15.765625 -10.484375 15.257812 -11.859375 14.25 -12.921875 C 13.25 -13.984375 11.960938 -14.515625 10.390625 -14.515625 Z M 10.390625 -14.515625 "/></g></g></g><g fill="#ffffff" fill-opacity="1"><g transform="translate(135.353074, 30.989704)"><g><path d="M 9.734375 -21.484375 C 9.046875 -21.484375 8.472656 -21.28125 8.015625 -20.875 C 7.566406 -20.476562 7.34375 -19.882812 7.34375 -19.09375 L 7.34375 -17 L 11.953125 -17 L 11.953125 -14.140625 L 7.34375 -14.140625 L 7.34375 0 L 3.546875 0 L 3.546875 -14.140625 L 1.234375 -14.140625 L 1.234375 -17 L 3.546875 -17 L 3.546875 -18.734375 C 3.546875 -20.679688 4.144531 -22.175781 5.34375 -23.21875 C 6.539062 -24.269531 7.96875 -24.796875 9.625 -24.796875 C 11.175781 -24.796875 12.503906 -24.390625 13.609375 -23.578125 L 12.15625 -20.65625 C 11.40625 -21.207031 10.597656 -21.484375 9.734375 -21.484375 Z M 9.734375 -21.484375 "/></g></g></g><g fill="#ffffff" fill-opacity="1"><g transform="translate(145.913985, 30.989704)"><g><path d="M 10.09375 -17.796875 C 13.125 -17.796875 15.320312 -16.878906 16.6875 -15.046875 C 18.050781 -13.222656 18.609375 -10.664062 18.359375 -7.375 L 5.015625 -7.375 C 5.328125 -6 5.96875 -4.914062 6.9375 -4.125 C 7.914062 -3.34375 9.101562 -2.953125 10.5 -2.953125 C 12.488281 -2.953125 14.144531 -3.640625 15.46875 -5.015625 L 17.5 -2.859375 C 15.6875 -0.859375 13.25 0.140625 10.1875 0.140625 C 7.46875 0.140625 5.28125 -0.679688 3.625 -2.328125 C 1.976562 -3.984375 1.15625 -6.140625 1.15625 -8.796875 C 1.15625 -11.453125 1.984375 -13.609375 3.640625 -15.265625 C 5.304688 -16.929688 7.457031 -17.773438 10.09375 -17.796875 Z M 4.953125 -10.15625 L 15.046875 -10.15625 C 14.972656 -11.570312 14.492188 -12.691406 13.609375 -13.515625 C 12.722656 -14.335938 11.5625 -14.75 10.125 -14.75 C 8.726562 -14.75 7.570312 -14.335938 6.65625 -13.515625 C 5.738281 -12.691406 5.171875 -11.570312 4.953125 -10.15625 Z M 4.953125 -10.15625 "/></g></g></g><g fill="#ffffff" fill-opacity="1"><g transform="translate(164.611444, 30.989704)"><g><path d="M 8.109375 -17.828125 C 10.535156 -17.828125 12.59375 -17.226562 14.28125 -16.03125 L 12.890625 -13.21875 C 11.203125 -14.257812 9.503906 -14.78125 7.796875 -14.78125 C 6.078125 -14.78125 5.21875 -14.191406 5.21875 -13.015625 C 5.21875 -12.441406 5.535156 -11.96875 6.171875 -11.59375 C 6.816406 -11.21875 7.597656 -10.898438 8.515625 -10.640625 C 9.429688 -10.390625 10.347656 -10.09375 11.265625 -9.75 C 12.191406 -9.40625 12.972656 -8.84375 13.609375 -8.0625 C 14.253906 -7.289062 14.578125 -6.304688 14.578125 -5.109375 C 14.578125 -3.410156 13.925781 -2.109375 12.625 -1.203125 C 11.332031 -0.304688 9.722656 0.140625 7.796875 0.140625 C 6.472656 0.140625 5.175781 -0.0703125 3.90625 -0.5 C 2.632812 -0.9375 1.566406 -1.546875 0.703125 -2.328125 L 2.0625 -5.046875 C 2.8125 -4.378906 3.734375 -3.847656 4.828125 -3.453125 C 5.921875 -3.054688 6.96875 -2.859375 7.96875 -2.859375 C 8.832031 -2.859375 9.53125 -3.007812 10.0625 -3.3125 C 10.59375 -3.625 10.859375 -4.101562 10.859375 -4.75 C 10.859375 -5.414062 10.535156 -5.945312 9.890625 -6.34375 C 9.253906 -6.738281 8.476562 -7.054688 7.5625 -7.296875 C 6.65625 -7.546875 5.75 -7.835938 4.84375 -8.171875 C 3.9375 -8.503906 3.164062 -9.050781 2.53125 -9.8125 C 1.90625 -10.570312 1.59375 -11.539062 1.59375 -12.71875 C 1.59375 -14.394531 2.21875 -15.664062 3.46875 -16.53125 C 4.71875 -17.394531 6.265625 -17.828125 8.109375 -17.828125 Z M 8.109375 -17.828125 "/></g></g></g><g fill="#ffffff" fill-opacity="1"><g transform="translate(179.390073, 30.989704)"><g><path d="M 8.109375 -17.828125 C 10.535156 -17.828125 12.59375 -17.226562 14.28125 -16.03125 L 12.890625 -13.21875 C 11.203125 -14.257812 9.503906 -14.78125 7.796875 -14.78125 C 6.078125 -14.78125 5.21875 -14.191406 5.21875 -13.015625 C 5.21875 -12.441406 5.535156 -11.96875 6.171875 -11.59375 C 6.816406 -11.21875 7.597656 -10.898438 8.515625 -10.640625 C 9.429688 -10.390625 10.347656 -10.09375 11.265625 -9.75 C 12.191406 -9.40625 12.972656 -8.84375 13.609375 -8.0625 C 14.253906 -7.289062 14.578125 -6.304688 14.578125 -5.109375 C 14.578125 -3.410156 13.925781 -2.109375 12.625 -1.203125 C 11.332031 -0.304688 9.722656 0.140625 7.796875 0.140625 C 6.472656 0.140625 5.175781 -0.0703125 3.90625 -0.5 C 2.632812 -0.9375 1.566406 -1.546875 0.703125 -2.328125 L 2.0625 -5.046875 C 2.8125 -4.378906 3.734375 -3.847656 4.828125 -3.453125 C 5.921875 -3.054688 6.96875 -2.859375 7.96875 -2.859375 C 8.832031 -2.859375 9.53125 -3.007812 10.0625 -3.3125 C 10.59375 -3.625 10.859375 -4.101562 10.859375 -4.75 C 10.859375 -5.414062 10.535156 -5.945312 9.890625 -6.34375 C 9.253906 -6.738281 8.476562 -7.054688 7.5625 -7.296875 C 6.65625 -7.546875 5.75 -7.835938 4.84375 -8.171875 C 3.9375 -8.503906 3.164062 -9.050781 2.53125 -9.8125 C 1.90625 -10.570312 1.59375 -11.539062 1.59375 -12.71875 C 1.59375 -14.394531 2.21875 -15.664062 3.46875 -16.53125 C 4.71875 -17.394531 6.265625 -17.828125 8.109375 -17.828125 Z M 8.109375 -17.828125 "/></g></g></g><g fill="#ffffff" fill-opacity="1"><g transform="translate(194.168702, 30.989704)"><g><path d="M 3.109375 -24.375 C 3.535156 -24.8125 4.066406 -25.03125 4.703125 -25.03125 C 5.347656 -25.03125 5.878906 -24.8125 6.296875 -24.375 C 6.722656 -23.945312 6.9375 -23.394531 6.9375 -22.71875 C 6.9375 -22.050781 6.722656 -21.5 6.296875 -21.0625 C 5.878906 -20.632812 5.347656 -20.421875 4.703125 -20.421875 C 4.066406 -20.421875 3.535156 -20.632812 3.109375 -21.0625 C 2.691406 -21.5 2.484375 -22.050781 2.484375 -22.71875 C 2.484375 -23.394531 2.691406 -23.945312 3.109375 -24.375 Z M 6.609375 0 L 2.828125 0 L 2.828125 -17.671875 L 6.609375 -17.671875 Z M 6.609375 0 "/></g></g></g><g fill="#ffffff" fill-opacity="1"><g transform="translate(202.770203, 30.989704)"><g><path d="M 10.390625 -17.796875 C 13.117188 -17.796875 15.332031 -16.96875 17.03125 -15.3125 C 18.738281 -13.664062 19.59375 -11.503906 19.59375 -8.828125 C 19.59375 -6.171875 18.738281 -4.007812 17.03125 -2.34375 C 15.332031 -0.6875 13.117188 0.140625 10.390625 0.140625 C 7.648438 0.140625 5.425781 -0.6875 3.71875 -2.34375 C 2.007812 -4.007812 1.15625 -6.171875 1.15625 -8.828125 C 1.15625 -11.503906 2.007812 -13.664062 3.71875 -15.3125 C 5.425781 -16.96875 7.648438 -17.796875 10.390625 -17.796875 Z M 10.390625 -14.515625 C 8.796875 -14.515625 7.492188 -13.984375 6.484375 -12.921875 C 5.484375 -11.859375 4.984375 -10.484375 4.984375 -8.796875 C 4.984375 -7.097656 5.484375 -5.71875 6.484375 -4.65625 C 7.492188 -3.59375 8.796875 -3.0625 10.390625 -3.0625 C 11.984375 -3.0625 13.273438 -3.59375 14.265625 -4.65625 C 15.265625 -5.71875 15.765625 -7.097656 15.765625 -8.796875 C 15.765625 -10.484375 15.257812 -11.859375 14.25 -12.921875 C 13.25 -13.984375 11.960938 -14.515625 10.390625 -14.515625 Z M 10.390625 -14.515625 "/></g></g></g><g fill="#ffffff" fill-opacity="1"><g transform="translate(81.419395, 60.740625)"><g><path d="M 8.109375 -17.828125 C 10.535156 -17.828125 12.59375 -17.226562 14.28125 -16.03125 L 12.890625 -13.21875 C 11.203125 -14.257812 9.503906 -14.78125 7.796875 -14.78125 C 6.078125 -14.78125 5.21875 -14.191406 5.21875 -13.015625 C 5.21875 -12.441406 5.535156 -11.96875 6.171875 -11.59375 C 6.816406 -11.21875 7.597656 -10.898438 8.515625 -10.640625 C 9.429688 -10.390625 10.347656 -10.09375 11.265625 -9.75 C 12.191406 -9.40625 12.972656 -8.84375 13.609375 -8.0625 C 14.253906 -7.289062 14.578125 -6.304688 14.578125 -5.109375 C 14.578125 -3.410156 13.925781 -2.109375 12.625 -1.203125 C 11.332031 -0.304688 9.722656 0.140625 7.796875 0.140625 C 6.472656 0.140625 5.175781 -0.0703125 3.90625 -0.5 C 2.632812 -0.9375 1.566406 -1.546875 0.703125 -2.328125 L 2.0625 -5.046875 C 2.8125 -4.378906 3.734375 -3.847656 4.828125 -3.453125 C 5.921875 -3.054688 6.96875 -2.859375 7.96875 -2.859375 C 8.832031 -2.859375 9.53125 -3.007812 10.0625 -3.3125 C 10.59375 -3.625 10.859375 -4.101562 10.859375 -4.75 C 10.859375 -5.414062 10.535156 -5.945312 9.890625 -6.34375 C 9.253906 -6.738281 8.476562 -7.054688 7.5625 -7.296875 C 6.65625 -7.546875 5.75 -7.835938 4.84375 -8.171875 C 3.9375 -8.503906 3.164062 -9.050781 2.53125 -9.8125 C 1.90625 -10.570312 1.59375 -11.539062 1.59375 -12.71875 C 1.59375 -14.394531 2.21875 -15.664062 3.46875 -16.53125 C 4.71875 -17.394531 6.265625 -17.828125 8.109375 -17.828125 Z M 8.109375 -17.828125 "/></g></g></g><g fill="#ffffff" fill-opacity="1"><g transform="translate(96.198022, 60.740625)"><g><path d="M 11.859375 -4.046875 L 12.8125 -1.125 C 11.351562 -0.257812 9.90625 0.171875 8.46875 0.171875 C 7.03125 0.171875 5.84375 -0.257812 4.90625 -1.125 C 3.976562 -1.988281 3.515625 -3.273438 3.515625 -4.984375 L 3.515625 -14.140625 L 1.03125 -14.140625 L 1.03125 -17 L 3.515625 -17 L 3.515625 -21.84375 L 7.3125 -21.84375 L 7.3125 -17 L 12.515625 -17 L 12.515625 -14.140625 L 7.3125 -14.140625 L 7.3125 -5.671875 C 7.3125 -4.785156 7.460938 -4.164062 7.765625 -3.8125 C 8.078125 -3.457031 8.554688 -3.28125 9.203125 -3.28125 C 9.910156 -3.28125 10.796875 -3.535156 11.859375 -4.046875 Z M 11.859375 -4.046875 "/></g></g></g><g fill="#ffffff" fill-opacity="1"><g transform="translate(108.884396, 60.740625)"><g><path d="M 18.859375 -17.671875 L 18.859375 0 L 15.046875 0 L 15.046875 -3.453125 C 13.890625 -1.109375 11.785156 0.0859375 8.734375 0.140625 C 6.722656 0.140625 5.140625 -0.46875 3.984375 -1.6875 C 2.835938 -2.90625 2.265625 -4.566406 2.265625 -6.671875 L 2.265625 -17.671875 L 6.078125 -17.671875 L 6.078125 -7.734375 C 6.078125 -6.410156 6.441406 -5.363281 7.171875 -4.59375 C 7.898438 -3.832031 8.90625 -3.453125 10.1875 -3.453125 C 11.675781 -3.472656 12.859375 -4 13.734375 -5.03125 C 14.609375 -6.0625 15.046875 -7.375 15.046875 -8.96875 L 15.046875 -17.671875 Z M 18.859375 -17.671875 "/></g></g></g><g fill="#ffffff" fill-opacity="1"><g transform="translate(129.740529, 60.740625)"><g><path d="M 19.65625 -24.640625 L 19.65625 0 L 15.84375 0 L 15.84375 -3.015625 C 14.53125 -0.890625 12.457031 0.171875 9.625 0.171875 C 7.101562 0.171875 5.0625 -0.660156 3.5 -2.328125 C 1.9375 -4.003906 1.15625 -6.195312 1.15625 -8.90625 C 1.15625 -11.5625 1.929688 -13.710938 3.484375 -15.359375 C 5.035156 -17.003906 7.0625 -17.828125 9.5625 -17.828125 C 12.394531 -17.828125 14.488281 -16.753906 15.84375 -14.609375 L 15.84375 -24.640625 Z M 6.515625 -4.625 C 7.523438 -3.550781 8.828125 -3.015625 10.421875 -3.015625 C 12.015625 -3.015625 13.316406 -3.550781 14.328125 -4.625 C 15.335938 -5.707031 15.84375 -7.085938 15.84375 -8.765625 C 15.84375 -10.472656 15.335938 -11.867188 14.328125 -12.953125 C 13.316406 -14.035156 12.015625 -14.578125 10.421875 -14.578125 C 8.828125 -14.578125 7.523438 -14.035156 6.515625 -12.953125 C 5.515625 -11.867188 5.003906 -10.472656 4.984375 -8.765625 C 5.003906 -7.085938 5.515625 -5.707031 6.515625 -4.625 Z M 6.515625 -4.625 "/></g></g></g><g fill="#ffffff" fill-opacity="1"><g transform="translate(151.559765, 60.740625)"><g><path d="M 3.109375 -24.375 C 3.535156 -24.8125 4.066406 -25.03125 4.703125 -25.03125 C 5.347656 -25.03125 5.878906 -24.8125 6.296875 -24.375 C 6.722656 -23.945312 6.9375 -23.394531 6.9375 -22.71875 C 6.9375 -22.050781 6.722656 -21.5 6.296875 -21.0625 C 5.878906 -20.632812 5.347656 -20.421875 4.703125 -20.421875 C 4.066406 -20.421875 3.535156 -20.632812 3.109375 -21.0625 C 2.691406 -21.5 2.484375 -22.050781 2.484375 -22.71875 C 2.484375 -23.394531 2.691406 -23.945312 3.109375 -24.375 Z M 6.609375 0 L 2.828125 0 L 2.828125 -17.671875 L 6.609375 -17.671875 Z M 6.609375 0 "/></g></g></g><g fill="#ffffff" fill-opacity="1"><g transform="translate(160.161267, 60.740625)"><g><path d="M 10.390625 -17.796875 C 13.117188 -17.796875 15.332031 -16.96875 17.03125 -15.3125 C 18.738281 -13.664062 19.59375 -11.503906 19.59375 -8.828125 C 19.59375 -6.171875 18.738281 -4.007812 17.03125 -2.34375 C 15.332031 -0.6875 13.117188 0.140625 10.390625 0.140625 C 7.648438 0.140625 5.425781 -0.6875 3.71875 -2.34375 C 2.007812 -4.007812 1.15625 -6.171875 1.15625 -8.828125 C 1.15625 -11.503906 2.007812 -13.664062 3.71875 -15.3125 C 5.425781 -16.96875 7.648438 -17.796875 10.390625 -17.796875 Z M 10.390625 -14.515625 C 8.796875 -14.515625 7.492188 -13.984375 6.484375 -12.921875 C 5.484375 -11.859375 4.984375 -10.484375 4.984375 -8.796875 C 4.984375 -7.097656 5.484375 -5.71875 6.484375 -4.65625 C 7.492188 -3.59375 8.796875 -3.0625 10.390625 -3.0625 C 11.984375 -3.0625 13.273438 -3.59375 14.265625 -4.65625 C 15.265625 -5.71875 15.765625 -7.097656 15.765625 -8.796875 C 15.765625 -10.484375 15.257812 -11.859375 14.25 -12.921875 C 13.25 -13.984375 11.960938 -14.515625 10.390625 -14.515625 Z M 10.390625 -14.515625 "/></g></g></g><g fill="#ffffff" fill-opacity="1"><g transform="translate(180.087509, 60.740625)"><g><path d="M 8.109375 -17.828125 C 10.535156 -17.828125 12.59375 -17.226562 14.28125 -16.03125 L 12.890625 -13.21875 C 11.203125 -14.257812 9.503906 -14.78125 7.796875 -14.78125 C 6.078125 -14.78125 5.21875 -14.191406 5.21875 -13.015625 C 5.21875 -12.441406 5.535156 -11.96875 6.171875 -11.59375 C 6.816406 -11.21875 7.597656 -10.898438 8.515625 -10.640625 C 9.429688 -10.390625 10.347656 -10.09375 11.265625 -9.75 C 12.191406 -9.40625 12.972656 -8.84375 13.609375 -8.0625 C 14.253906 -7.289062 14.578125 -6.304688 14.578125 -5.109375 C 14.578125 -3.410156 13.925781 -2.109375 12.625 -1.203125 C 11.332031 -0.304688 9.722656 0.140625 7.796875 0.140625 C 6.472656 0.140625 5.175781 -0.0703125 3.90625 -0.5 C 2.632812 -0.9375 1.566406 -1.546875 0.703125 -2.328125 L 2.0625 -5.046875 C 2.8125 -4.378906 3.734375 -3.847656 4.828125 -3.453125 C 5.921875 -3.054688 6.96875 -2.859375 7.96875 -2.859375 C 8.832031 -2.859375 9.53125 -3.007812 10.0625 -3.3125 C 10.59375 -3.625 10.859375 -4.101562 10.859375 -4.75 C 10.859375 -5.414062 10.535156 -5.945312 9.890625 -6.34375 C 9.253906 -6.738281 8.476562 -7.054688 7.5625 -7.296875 C 6.65625 -7.546875 5.75 -7.835938 4.84375 -8.171875 C 3.9375 -8.503906 3.164062 -9.050781 2.53125 -9.8125 C 1.90625 -10.570312 1.59375 -11.539062 1.59375 -12.71875 C 1.59375 -14.394531 2.21875 -15.664062 3.46875 -16.53125 C 4.71875 -17.394531 6.265625 -17.828125 8.109375 -17.828125 Z M 8.109375 -17.828125 "/></g></g></g></svg>